Coordinates
version=1
nRows=21
nColumns=22
inDegrees=yes

Units are S.I. units (second, meters, Newtons, ...)
If the header above contains a line with 'inDegrees', this indicates whether rotational values are in degrees (yes) or radians (no).

endheader
time	pelvis_tilt	pelvis_list	pelvis_rotation	pelvis_tx	pelvis_ty	pelvis_tz	hip_flexion_r	hip_adduction_r	hip_rotation_r	knee_angle_r	ankle_angle_r	subtalar_angle_r	hip_flexion_l	hip_adduction_l	hip_rotation_l	knee_angle_l	ankle_angle_l	subtalar_angle_l	lumbar_extension	lumbar_bending	lumbar_rotation
      1.82000000	      5.51427268	      2.30022777	    153.88335091	     -0.34872583	      0.96148283	      0.78588095	     16.66166984	     13.74402887	    -13.78922393	    -22.48012437	      9.03058504	     -7.31152552	     19.45479573	    -12.89204853	     10.08360502	    -57.39848351	      6.49443403	      0.10718742	     -1.76882872	     11.48969369	     -9.68657959
      1.83000000	      5.61865562	      2.27166840	    152.63459697	     -0.35413855	      0.96161751	      0.77779186	     15.65015397	     14.41749445	    -12.53173220	    -21.82406766	      9.16410190	     -7.45980765	     20.22180620	    -12.99378812	     10.46133123	    -56.36976538	      7.22073227	     -0.60049215	     -1.65319586	     11.39412967	     -9.31540318
      1.84000000	      5.72941012	      2.22681888	    151.37323159	     -0.35944165	      0.96164218	      0.76973759	     14.64292557	     15.04062164	    -11.25622655	    -21.18773087	      9.29722221	     -7.60275501	     20.97883098	    -13.07824035	     10.81476129	    -55.24823339	      7.90725163	     -1.27588903	     -1.52755609	     11.29753903	     -8.92977705
      1.85000000	      5.84696345	      2.16058511	    150.09465501	     -0.36463741	      0.96155940	      0.76173861	     13.65005835	     15.60714034	     -9.97307530	    -20.58121954	      9.44452979	     -7.74201467	     21.72639092	    -13.13758651	     11.13714400	    -54.03995827	      8.54979970	     -1.88521694	     -1.39360646	     11.20166000	     -8.53494326
      1.86000000	      5.96201895	      2.06826661	    148.79686934	     -0.36972246	      0.96138484	      0.75381990	     12.67083018	     16.11007455	     -8.65609910	    -20.00898577	      9.58736474	     -7.87041517	     22.46063523	    -13.14994209	     11.44850837	    -52.76181352	      9.11377062	     -2.37164625	     -1.26046098	     11.09932309	     -8.12413981
      1.87000000	      6.07505734	      1.95086622	    147.48812022	     -0.37470915	      0.96110802	      0.74597239	     11.71180514	     16.54858904	     -7.32986999	    -19.47812780	      9.74115802	     -7.99061794	     23.18471068	    -13.11203074	     11.76406839	    -51.42633873	      9.60035187	     -2.71456170	     -1.12356338	     10.98793894	     -7.69802487
      1.88000000	      6.17619643	      1.81368955	    146.17293058	     -0.37960919	      0.96074788	      0.73823420	     10.77088707	     16.92115992	     -5.98683562	    -18.99778034	      9.90378213	     -8.10795668	     23.88792691	    -13.01171017	     12.10440290	    -50.04373745	     10.00289431	     -2.90769595	     -0.99990456	     10.87301088	     -7.26222054
      1.89000000	      6.31930869	      1.65410012	    144.86464916	     -0.38441081	      0.96022500	      0.73061593	      9.90760416	     17.25696021	     -4.65128075	    -18.56986875	     10.06919434	     -8.20355240	     24.64553389	    -12.87711884	     12.48937945	    -48.64763905	     10.30152388	     -2.93490710	     -0.83404808	     10.78546655	     -6.82501544
      1.90000000	      6.37841754	      1.49592281	    143.55901095	     -0.38919981	      0.95972428	      0.72306864	      8.98206268	     17.50461503	     -3.30756290	    -18.18492024	     10.25531123	     -8.32333522	     25.28772441	    -12.66032760	     12.89245292	    -47.19671130	     10.51842530	     -2.83914975	     -0.75662569	     10.66301778	     -6.38277701
      1.91000000	      6.42527084	      1.34182800	    142.28619201	     -0.39396134	      0.95913597	      0.71560544	      8.07362216	     17.70630174	     -1.99904191	    -17.84950930	     10.45136346	     -8.44795821	     25.91552796	    -12.39985715	     13.34907059	    -45.73137222	     10.63860242	     -2.61625868	     -0.69555250	     10.54835881	     -5.97404248
      1.92000000	      6.39818075	      1.22085768	    141.06108081	     -0.39877027	      0.95856105	      0.70820950	      7.09848577	     17.84460940	     -0.74770306	    -17.54064204	     10.67493298	     -8.61529865	     26.44284398	    -12.08332961	     13.84367316	    -44.23374949	     10.70209840	     -2.16677078	     -0.72080993	     10.42480238	     -5.62573599
      1.93000000	      6.44589809	      1.07429470	    139.86361670	     -0.40348981	      0.95776594	      0.70090265	      6.26403766	     17.97768971	      0.46848838	    -17.31866321	     10.89473865	     -8.72135128	     27.07473074	    -11.77432021	     14.35771755	    -42.75411728	     10.60184051	     -1.81272948	     -0.67104604	     10.33963527	     -5.27858978
      1.94000000	      6.42475253	      0.96515632	    138.71775473	     -0.40827984	      0.95698024	      0.69360745	      5.36541940	     18.06030431	      1.61903680	    -17.12310643	     11.14935439	     -8.83548815	     27.60629796	    -11.43588345	     14.86469377	    -41.24212959	     10.42079889	     -1.33518686	     -0.70134785	     10.24274537	     -4.98938142
      1.95000000	      6.38091458	      0.89131160	    137.64968333	     -0.41315439	      0.95613746	      0.68634003	      4.44420517	     18.11993149	      2.66771481	    -16.94229055	     11.45187126	     -8.95161099	     28.09825673	    -11.08730678	     15.37737337	    -39.71598164	     10.16260708	     -0.74173302	     -0.76550484	     10.16262294	     -4.78180080
      1.96000000	      6.36267986	      0.80908779	    136.61831297	     -0.41801451	      0.95517383	      0.67910592	      3.59613281	     18.16604665	      3.66842310	    -16.82627306	     11.74204358	     -9.02507460	     28.61767522	    -10.75440218	     15.83241581	    -38.17574593	      9.73162213	     -0.25809467	     -0.80407920	     10.09970842	     -4.60262939
      1.97000000	      6.35631653	      0.72315147	    135.62438367	     -0.42288350	      0.95411267	      0.67187216	      2.79501269	     18.19589166	      4.60934559	    -16.75708128	     12.03366594	     -9.07065544	     29.13944998	    -10.43941049	     16.20642908	    -36.60990239	      9.17444915	      0.12416349	     -0.82916942	     10.04562797	     -4.43924573
      1.98000000	      6.34800645	      0.65305066	    134.68150680	     -0.42778776	      0.95299179	      0.66462754	      1.99850256	     18.21583790	      5.49317430	    -16.70425915	     12.33023069	     -9.09895127	     29.63776625	    -10.14311465	     16.50145438	    -35.01526788	      8.52124600	      0.48824156	     -0.86460346	     10.00517741	     -4.33338454
      1.99000000	      6.34099126	      0.61196823	    133.78894561	     -0.43274245	      0.95182387	      0.65735432	      1.18252122	     18.23547458	      6.31434679	    -16.64057149	     12.65526988	     -9.10948390	     30.10536908	     -9.87861771	     16.70405342	    -33.39527141	      7.81435486	      0.86607188	     -0.91654839	      9.99151688	     -4.24265262
      2.00000000	      6.36666863	      0.54370835	    132.92160282	     -0.43765349	      0.95055019	      0.65006507	      0.45180508	     18.24616492	      7.09977644	    -16.63376364	     12.92352893	     -9.11804423	     30.59749030	     -9.64069774	     16.78889283	    -31.73942924	      7.05975435	      1.15314673	     -0.92591349	      9.98367199	     -4.18551618
      2.01000000	      6.39147144	      0.50229489	    132.08685514	     -0.44260095	      0.94925775	      0.64270703	     -0.30562959	     18.25490651	      7.83975153	    -16.61182979	     13.21082456	     -9.11093185	     31.03816689	     -9.43327244	     16.78539251	    -30.05095196	      6.34911819	      1.45935811	     -0.95578567	      9.99740608	     -4.11490633
      2.02000000	      6.43563098	      0.44783820	    131.26946045	     -0.44752344	      0.94790561	      0.63528942	     -1.01631911	     18.25387900	      8.54918841	    -16.62322158	     13.46687452	     -9.08835709	     31.46340689	     -9.24970733	     16.68784527	    -28.32188895	      5.73023593	      1.76095310	     -0.96446242	     10.01679386	     -4.06294567
